<mxfile host="app.diagrams.net" modified="2024-07-02T21:02:34.257Z" agent="Mozilla/5.0 (Windows NT 10.0; Win64; x64) AppleWebKit/537.36 (KHTML, like Gecko) Chrome/111.0.0.0 Safari/537.36 OPR/97.0.0.0 (Edition Yx 05)" etag="kH3V2wxoGQn5CcJEk0Zp" version="24.6.4" type="device">
  <diagram name="Page-1" id="FjagQS8sjUyxHF_463YX">
    <mxGraphModel dx="1434" dy="793" grid="1" gridSize="10" guides="1" tooltips="1" connect="1" arrows="1" fold="1" page="1" pageScale="1" pageWidth="850" pageHeight="1100" math="0" shadow="0">
      <root>
        <mxCell id="0" />
        <mxCell id="1" parent="0" />
        <mxCell id="32pNDHAFJLQaqbVgpqqF-1" value="192.168.100.5" style="fontColor=#0066CC;verticalAlign=top;verticalLabelPosition=bottom;labelPosition=center;align=center;html=1;outlineConnect=0;fillColor=#CCCCCC;strokeColor=#6881B3;gradientColor=none;gradientDirection=north;strokeWidth=2;shape=mxgraph.networks.virtual_pc;" vertex="1" parent="1">
          <mxGeometry x="50" y="260" width="115" height="85" as="geometry" />
        </mxCell>
        <mxCell id="32pNDHAFJLQaqbVgpqqF-2" value="192.168.100.63" style="fontColor=#0066CC;verticalAlign=top;verticalLabelPosition=bottom;labelPosition=center;align=center;html=1;outlineConnect=0;fillColor=#CCCCCC;strokeColor=#6881B3;gradientColor=none;gradientDirection=north;strokeWidth=2;shape=mxgraph.networks.virtual_pc;" vertex="1" parent="1">
          <mxGeometry x="380" y="490" width="115" height="85" as="geometry" />
        </mxCell>
        <mxCell id="32pNDHAFJLQaqbVgpqqF-3" value="192.168.100.52" style="fontColor=#0066CC;verticalAlign=top;verticalLabelPosition=bottom;labelPosition=center;align=center;html=1;outlineConnect=0;fillColor=#CCCCCC;strokeColor=#6881B3;gradientColor=none;gradientDirection=north;strokeWidth=2;shape=mxgraph.networks.virtual_pc;" vertex="1" parent="1">
          <mxGeometry x="370" y="260" width="115" height="85" as="geometry" />
        </mxCell>
        <mxCell id="32pNDHAFJLQaqbVgpqqF-7" style="edgeStyle=orthogonalEdgeStyle;rounded=0;orthogonalLoop=1;jettySize=auto;html=1;exitX=1;exitY=0.5;exitDx=0;exitDy=0;exitPerimeter=0;" edge="1" parent="1" source="32pNDHAFJLQaqbVgpqqF-4">
          <mxGeometry relative="1" as="geometry">
            <mxPoint x="460" y="160" as="targetPoint" />
          </mxGeometry>
        </mxCell>
        <mxCell id="32pNDHAFJLQaqbVgpqqF-4" value="192.168.100.51" style="fontColor=#0066CC;verticalAlign=top;verticalLabelPosition=bottom;labelPosition=center;align=center;html=1;outlineConnect=0;fillColor=#CCCCCC;strokeColor=#6881B3;gradientColor=none;gradientDirection=north;strokeWidth=2;shape=mxgraph.networks.virtual_pc;" vertex="1" parent="1">
          <mxGeometry x="370" y="140" width="115" height="85" as="geometry" />
        </mxCell>
        <mxCell id="32pNDHAFJLQaqbVgpqqF-5" value="192.168.100.50" style="fontColor=#0066CC;verticalAlign=top;verticalLabelPosition=bottom;labelPosition=center;align=center;html=1;outlineConnect=0;fillColor=#CCCCCC;strokeColor=#6881B3;gradientColor=none;gradientDirection=north;strokeWidth=2;shape=mxgraph.networks.virtual_pc;" vertex="1" parent="1">
          <mxGeometry x="368" y="10" width="115" height="85" as="geometry" />
        </mxCell>
        <mxCell id="32pNDHAFJLQaqbVgpqqF-11" value="" style="edgeStyle=orthogonalEdgeStyle;rounded=0;orthogonalLoop=1;jettySize=auto;html=1;" edge="1" parent="1" source="32pNDHAFJLQaqbVgpqqF-6" target="32pNDHAFJLQaqbVgpqqF-2">
          <mxGeometry relative="1" as="geometry" />
        </mxCell>
        <mxCell id="32pNDHAFJLQaqbVgpqqF-6" value="&lt;div&gt;192.168.100,55&lt;/div&gt;&lt;div&gt;192.168.0.50&lt;/div&gt;&lt;div&gt;&lt;br&gt;&lt;/div&gt;" style="fontColor=#0066CC;verticalAlign=top;verticalLabelPosition=bottom;labelPosition=center;align=center;html=1;outlineConnect=0;fillColor=#CCCCCC;strokeColor=#6881B3;gradientColor=none;gradientDirection=north;strokeWidth=2;shape=mxgraph.networks.virtual_pc;" vertex="1" parent="1">
          <mxGeometry x="370" y="360" width="115" height="85" as="geometry" />
        </mxCell>
        <mxCell id="32pNDHAFJLQaqbVgpqqF-8" value="192.168.100.67" style="fontColor=#0066CC;verticalAlign=top;verticalLabelPosition=bottom;labelPosition=center;align=center;html=1;outlineConnect=0;fillColor=#CCCCCC;strokeColor=#6881B3;gradientColor=none;gradientDirection=north;strokeWidth=2;shape=mxgraph.networks.virtual_pc;" vertex="1" parent="1">
          <mxGeometry x="380" y="600" width="115" height="85" as="geometry" />
        </mxCell>
        <mxCell id="32pNDHAFJLQaqbVgpqqF-12" value="192.168.0.51" style="fontColor=#0066CC;verticalAlign=top;verticalLabelPosition=bottom;labelPosition=center;align=center;html=1;outlineConnect=0;fillColor=#CCCCCC;strokeColor=#6881B3;gradientColor=none;gradientDirection=north;strokeWidth=2;shape=mxgraph.networks.virtual_pc;" vertex="1" parent="1">
          <mxGeometry x="580" y="270" width="115" height="85" as="geometry" />
        </mxCell>
        <mxCell id="32pNDHAFJLQaqbVgpqqF-13" value="&lt;div&gt;192.168.0.57&lt;/div&gt;&lt;div&gt;&lt;br&gt;&lt;/div&gt;" style="fontColor=#0066CC;verticalAlign=top;verticalLabelPosition=bottom;labelPosition=center;align=center;html=1;outlineConnect=0;fillColor=#CCCCCC;strokeColor=#6881B3;gradientColor=none;gradientDirection=north;strokeWidth=2;shape=mxgraph.networks.virtual_pc;" vertex="1" parent="1">
          <mxGeometry x="580" y="405" width="115" height="85" as="geometry" />
        </mxCell>
      </root>
    </mxGraphModel>
  </diagram>
</mxfile>
